<svg width="32" height="32" viewBox="0 0 32 32" fill="none" xmlns="http://www.w3.org/2000/svg">
<path d="M27.1963 31.5279C26.0679 31.5279 25.0063 31.0803 24.2055 30.277C23.4047 29.4677 22.9679 28.3947 22.9679 27.2542C22.9679 26.1138 23.4047 25.0408 24.2055 24.2376C25.0063 23.4282 26.0679 22.9868 27.1963 22.9868C28.3247 22.9868 29.3863 23.4282 30.1871 24.2376C31.8372 25.9053 31.8372 28.6154 30.1871 30.2832C29.3863 31.0864 28.3247 31.5279 27.1963 31.5279ZM7.21312 7.49875C8.0139 6.6894 8.45069 5.6164 8.45069 4.47595C8.45069 3.3355 8.00784 2.2625 7.21312 1.45315C6.4184 0.643801 5.35676 0.202337 4.22838 0.202337C3.1 0.202337 2.03836 0.649933 1.23757 1.45315C0.436791 2.25637 0 3.32937 0 4.46982C0 5.61027 0.442858 6.68327 1.23757 7.49262C2.03836 8.30197 3.1 8.74343 4.22838 8.74343C5.35676 8.74343 6.4184 8.30197 7.21312 7.49875ZM29.993 7.36999C31.6431 5.70224 31.6431 2.99214 29.993 1.32439C29.1922 0.515041 28.1306 0.0735772 27.0022 0.0735772C25.8738 0.0735772 24.8122 0.521173 24.0114 1.32439C22.3673 2.99214 22.3673 5.70224 24.0114 7.36386C24.8122 8.17321 25.8738 8.61467 27.0022 8.61467C28.1366 8.6208 29.1983 8.17934 29.993 7.36999ZM4.33758 31.5279C5.46595 31.5279 6.5276 31.0803 7.32232 30.277C7.49218 30.1054 7.64384 29.9153 7.80157 29.6823C7.85011 29.6087 7.89864 29.5351 7.93504 29.4677C8.02604 29.3083 8.1049 29.155 8.1777 28.9894C8.2141 28.9097 8.24443 28.8362 8.28083 28.7503C8.3415 28.5909 8.39003 28.4192 8.43856 28.223C8.44463 28.1924 8.47496 28.082 8.48103 28.0636L8.54776 27.15V27.1255C8.54776 27.058 8.54169 26.9967 8.52956 26.9293C8.52349 26.8741 8.51743 26.8128 8.51136 26.7821C8.50529 26.7269 8.49923 26.6718 8.49923 26.6166C8.49316 26.5675 8.49316 26.5246 8.48709 26.4756L8.48103 26.4388V26.3897C8.43249 24.7587 9.07555 23.1278 10.2403 21.9138C11.4112 20.6997 13.0127 20.0008 14.6325 20.0008C14.6992 20.0008 14.772 20.0008 14.8388 20.0069H14.8752L14.9237 20.0191L14.9601 20.0253C15.0026 20.0253 15.0511 20.0314 15.0754 20.0375L15.1603 20.0498C15.2816 20.0682 15.403 20.0805 15.5121 20.0866L16.4646 20.0191C16.4889 20.013 16.5071 20.0069 16.5313 20.0008L16.6345 19.9701C16.8165 19.9272 16.9863 19.8781 17.1501 19.8168C17.229 19.7862 17.3139 19.7494 17.3928 19.7126C17.5444 19.639 17.6961 19.5593 17.8478 19.4673C17.9145 19.4305 17.9812 19.3876 18.054 19.3386C18.2967 19.173 18.4848 19.0197 18.6486 18.848C20.2987 17.1803 20.2987 14.4702 18.6546 12.8024C17.8538 11.9931 16.7922 11.5516 15.6638 11.5516C14.5354 11.5516 13.4738 11.9931 12.673 12.8024C12.5092 12.968 12.3575 13.1581 12.1877 13.4095C12.1392 13.4769 12.1028 13.5443 12.0603 13.6118C11.9693 13.7651 11.8904 13.9184 11.8176 14.0839C11.7812 14.1575 11.7509 14.2311 11.7145 14.3353C11.6478 14.5131 11.5992 14.6909 11.5568 14.8749L11.5386 14.9362C11.5325 14.9607 11.5264 14.9791 11.5204 15.0036L11.4476 15.9601C11.4536 16.0398 11.4597 16.1196 11.4718 16.2054L11.484 16.3035C11.49 16.3587 11.4961 16.4139 11.5022 16.469C11.5082 16.512 11.5082 16.561 11.5143 16.6039L11.5204 16.653V16.702C11.5689 18.333 10.9258 19.964 9.76107 21.1719C8.59022 22.3859 6.98866 23.0849 5.36889 23.0849C5.30216 23.0849 5.22936 23.0849 5.16263 23.0787H5.12016L5.0777 23.0726H5.0413C4.99883 23.0726 4.95637 23.0665 4.91997 23.0603L4.86537 23.0542C4.7319 23.0358 4.59844 23.0236 4.48317 23.0174L3.54286 23.0849C3.51859 23.091 3.50039 23.0971 3.47613 23.1033C3.43973 23.1155 3.4094 23.1217 3.36693 23.1339C3.1728 23.183 3.00294 23.232 2.85127 23.2872C2.76634 23.3179 2.68141 23.3546 2.60255 23.3914C2.45695 23.4589 2.29922 23.5386 2.14756 23.6306C2.08082 23.6735 2.01409 23.7103 1.94129 23.7655C1.69863 23.931 1.51057 24.0843 1.34677 24.256C0.545989 25.0653 0.109198 26.1383 0.109198 27.2788C0.109198 28.4192 0.545989 29.4922 1.34677 30.3016C2.14756 31.0864 3.2092 31.5279 4.33758 31.5279ZM15.7548 31.5279C16.8832 31.5279 17.9448 31.0864 18.7395 30.2832C18.9094 30.1115 19.0611 29.9214 19.2309 29.6762C19.2734 29.6087 19.3159 29.5351 19.3644 29.4616C19.4493 29.3144 19.5282 29.1611 19.601 29.0078L19.6131 28.9833C19.6495 28.9036 19.6799 28.83 19.7102 28.7564C19.7709 28.5909 19.8194 28.4192 19.8679 28.223C19.8679 28.223 19.9043 28.0942 19.9104 28.0759L19.9771 27.1377C19.9771 27.0642 19.965 26.9906 19.9589 26.9231C19.9529 26.8741 19.9468 26.8189 19.9468 26.7821C19.9407 26.7331 19.9347 26.684 19.9347 26.635C19.9286 26.5859 19.9286 26.5369 19.9225 26.4878L19.9104 26.4388V26.3897C19.8619 24.7587 20.5049 23.1278 21.6697 21.9138C22.8405 20.6997 24.436 20.0008 26.0558 20.0008C26.1225 20.0008 26.1953 20.0008 26.2621 20.0069L26.3409 20.013C26.3531 20.013 26.3713 20.013 26.3834 20.013C26.4198 20.013 26.4562 20.0191 26.5108 20.0253C26.6564 20.0437 26.802 20.0621 26.9415 20.0682L27.8818 20.0008C27.9061 19.9946 27.9243 19.9885 27.9486 19.9824C27.9789 19.9701 28.0153 19.964 28.0578 19.9517C28.264 19.9026 28.4278 19.8536 28.5734 19.7984C28.6583 19.7678 28.7372 19.731 28.8221 19.6942C28.9738 19.6267 29.1255 19.5409 29.265 19.4612L29.3378 19.4121C29.3863 19.3815 29.4288 19.357 29.4773 19.3263C29.7261 19.1546 29.9141 18.9952 30.0779 18.8358C31.728 17.168 31.728 14.4579 30.0779 12.7902C29.2771 11.9808 28.2155 11.5394 27.0871 11.5394C25.9587 11.5394 24.8971 11.987 24.0963 12.7902C23.9325 12.9557 23.7808 13.1458 23.6049 13.4033C23.5685 13.4585 23.5321 13.5137 23.5018 13.5689L23.4836 13.5995C23.3865 13.7651 23.3077 13.9184 23.2409 14.0655C23.2045 14.1452 23.1681 14.2249 23.1378 14.3108C23.0832 14.4518 23.0347 14.6174 22.9861 14.8381C22.9801 14.8749 22.9437 14.9852 22.9376 15.0098L22.8709 15.9356C22.8709 16.0092 22.883 16.0828 22.8891 16.1625L22.9073 16.2974C22.9133 16.3464 22.9133 16.3893 22.9194 16.4384C22.9194 16.4445 22.9194 16.4506 22.9194 16.4629L22.9376 16.4874L22.9437 16.6836C22.9922 18.3146 22.3491 19.9456 21.1844 21.1596C20.0196 22.3736 18.418 23.0726 16.7983 23.0726C16.7255 23.0726 16.6587 23.0726 16.5859 23.0665L16.5435 23.0603L16.5131 23.0542C16.501 23.0542 16.4828 23.0542 16.4646 23.0542C16.4221 23.0542 16.3857 23.0481 16.3372 23.0481L16.2644 23.0358C16.137 23.0174 16.0157 23.0052 15.9004 22.999L14.9419 23.0726C14.9237 23.0787 14.772 23.1217 14.772 23.1217C14.59 23.1646 14.4202 23.2136 14.2624 23.2688C14.1775 23.2995 14.0986 23.3363 14.0198 23.373C13.862 23.4466 13.7165 23.5263 13.5587 23.6183C13.4859 23.6612 13.4192 23.7041 13.3585 23.7471C13.1037 23.9249 12.9217 24.0782 12.7579 24.2437C11.9572 25.0469 11.5204 26.1199 11.5204 27.2604C11.5204 28.4008 11.9632 29.4738 12.7579 30.2832C13.5648 31.0864 14.6264 31.5279 15.7548 31.5279ZM4.33758 19.9946C5.46595 19.9946 6.5276 19.5532 7.32232 18.7438C7.48611 18.5783 7.63778 18.3943 7.80764 18.1368C7.85011 18.0693 7.89257 18.0019 7.93504 17.9283C8.02604 17.775 8.1049 17.6218 8.1777 17.4685C8.2141 17.3826 8.25656 17.2968 8.2869 17.2171C8.3415 17.0638 8.39609 16.8921 8.43856 16.6836L8.46283 16.5978C8.46889 16.5733 8.48103 16.5488 8.48103 16.5242L8.54776 15.5922C8.54776 15.5187 8.53562 15.4512 8.52956 15.3776C8.52349 15.3286 8.51743 15.2734 8.51136 15.2366C8.50529 15.1876 8.49923 15.1385 8.49923 15.0895C8.49316 15.0404 8.49316 14.9914 8.48103 14.9423V14.8994V14.8503C8.43249 13.2194 9.07555 11.5884 10.2403 10.3744C11.4112 9.16037 13.0067 8.46139 14.6264 8.46139C14.6992 8.46139 14.766 8.46138 14.8388 8.46752L14.8812 8.47365L14.9116 8.47978C14.9298 8.47978 14.9419 8.47978 14.9601 8.48591C14.9965 8.48591 15.039 8.49204 15.0814 8.49817L15.136 8.50431C15.2695 8.5227 15.3969 8.53496 15.5121 8.54109L16.4464 8.47365C16.4707 8.46752 16.4889 8.46139 16.5131 8.45525C16.5495 8.44299 16.5859 8.43686 16.6223 8.4246C16.8104 8.38168 16.9803 8.33263 17.138 8.27131C17.2168 8.24065 17.3018 8.20387 17.3867 8.16708C17.5323 8.09963 17.684 8.01992 17.8356 7.92795L17.866 7.90956C17.9266 7.87277 17.9812 7.84211 18.0419 7.79306C18.2785 7.62751 18.4726 7.46809 18.6364 7.30254C20.2865 5.63479 20.2865 2.9247 18.6364 1.25694C17.8538 0.447595 16.7922 0 15.6638 0C14.5354 0 13.4738 0.447595 12.673 1.25081C12.5092 1.41023 12.3575 1.60644 12.1877 1.85169C12.1452 1.91301 12.1088 1.97432 12.0724 2.03564L12.0603 2.0663C11.9693 2.22571 11.8844 2.379 11.8176 2.53228C11.7812 2.61812 11.7448 2.69783 11.7145 2.77754C11.6599 2.9247 11.6114 3.09025 11.5568 3.31711C11.5568 3.31711 11.5204 3.43361 11.5143 3.45813V3.47653L11.5082 3.49492L11.4476 4.39011C11.4476 4.46982 11.4597 4.54953 11.4718 4.62924L11.484 4.758C11.49 4.80092 11.49 4.84384 11.4961 4.88676C11.5022 4.94194 11.5022 4.99099 11.5082 5.04617L11.5143 5.09523V5.14428C11.5628 6.77524 10.9198 8.4062 9.755 9.62023C8.58416 10.8343 6.98866 11.5332 5.36889 11.5332C5.29609 11.5332 5.22936 11.5332 5.15656 11.5271H5.12016L5.08376 11.521C5.07163 11.521 5.05343 11.521 5.0413 11.521C5.0049 11.521 4.96243 11.5148 4.9139 11.5148L4.88357 11.5087C4.74404 11.4903 4.61057 11.4719 4.48317 11.4658L3.52466 11.5332C3.50646 11.5394 3.48826 11.5455 3.464 11.5516L3.3548 11.5823C3.17887 11.6252 3.00294 11.6743 2.85127 11.7294C2.76634 11.7601 2.68141 11.7969 2.60255 11.8337C2.44482 11.9073 2.29315 11.987 2.14756 12.0728C2.07476 12.1157 2.00196 12.1586 1.94129 12.2016C1.69863 12.3732 1.5045 12.5265 1.34071 12.6921C0.539922 13.4953 0.103131 14.5683 0.103131 15.7087C0.103131 16.8492 0.545989 17.9222 1.34071 18.7315C2.14756 19.547 3.2092 19.9946 4.33758 19.9946Z" fill="url(#paint0_linear_7_3282)"/>
<defs>
<linearGradient id="paint0_linear_7_3282" x1="5.87102" y1="33.0885" x2="25.8991" y2="-1.23401" gradientUnits="userSpaceOnUse">
<stop stop-color="#2E6AFF"/>
<stop offset="0.2957" stop-color="#5C42FF"/>
<stop offset="0.6071" stop-color="#5272FF"/>
<stop offset="0.8527" stop-color="#5272FF"/>
<stop offset="1" stop-color="#5272FF"/>
</linearGradient>
</defs>
</svg>
